<?xml version="1.0" encoding="UTF-8" standalone="no"?>
<svg
   height="24"
   viewBox="0 -960 960 960"
   width="24"
   version="1.1"
   id="svg4"
   sodipodi:docname="contact_support_FILL0_wght400_GRAD200_opsz24.svg"
   inkscape:export-filename="contact_support_FILL0_wght400_GRAD200_opsz24.png"
   inkscape:export-xdpi="512"
   inkscape:export-ydpi="512"
   inkscape:version="1.2.2 (732a01da63, 2022-12-09)"
   xmlns:inkscape="http://www.inkscape.org/namespaces/inkscape"
   xmlns:sodipodi="http://sodipodi.sourceforge.net/DTD/sodipodi-0.dtd"
   xmlns="http://www.w3.org/2000/svg"
   xmlns:svg="http://www.w3.org/2000/svg">
  <defs
     id="defs8" />
  <sodipodi:namedview
     id="namedview6"
     pagecolor="#ffffff"
     bordercolor="#000000"
     borderopacity="0.25"
     inkscape:showpageshadow="2"
     inkscape:pageopacity="0.0"
     inkscape:pagecheckerboard="0"
     inkscape:deskcolor="#d1d1d1"
     showgrid="false"
     inkscape:zoom="23.688077"
     inkscape:cx="7.7254054"
     inkscape:cy="11.081524"
     inkscape:window-width="1920"
     inkscape:window-height="991"
     inkscape:window-x="-9"
     inkscape:window-y="-9"
     inkscape:window-maximized="1"
     inkscape:current-layer="svg4" />
  <path
     d="m472-62-12-128q-148.682 0-252.341-103Q104-396 104-544.5t104-252Q312-900 460.289-900q74.145 0 138.368 27.408 64.224 27.407 112.784 75.5Q760-749 788-684.647T816-546q0 80-26 152.5t-72 135Q672-196 609.097-146.14 546.194-96.28 472-62Zm90-162q72-62 118-144.5t46-177.081q0-110.852-77.5-187.636Q571-810 460-810t-188.5 77.5Q194-655 194-544.5T271.5-357q77.5 77 188.586 77H562v56Zm-102.052-92Q479-316 492.5-329.448q13.5-13.449 13.5-32.5Q506-381 492.552-394.5q-13.449-13.5-32.5-13.5Q441-408 427.5-394.552q-13.5 13.449-13.5 32.5Q414-343 427.448-329.5q13.449 13.5 32.5 13.5ZM426-450h66q0-27 8-42.5t38-45.5q21-21 31.5-42.318Q580-601.636 580-626q0-54-36-80t-84-26q-46.538 0-78.269 27Q350-678 338-642l61.508 24Q405-635 419-652.5t41-17.5q26 0 39 14t13 32q0 17-7.5 29T478-566q-36 33-44 51.5t-8 64.5Zm34-67Z"
     id="path2"
     style="fill:#aa0000" />
</svg>
